<svg width="16" height="19" viewBox="0 0 16 19" fill="none" xmlns="http://www.w3.org/2000/svg">
<path d="M15 8C15 13.4444 8 18.1111 8 18.1111C8 18.1111 1 13.4444 1 8C1 6.14348 1.7375 4.36301 3.05025 3.05025C4.36301 1.7375 6.14348 1 8 1C9.85652 1 11.637 1.7375 12.9497 3.05025C14.2625 4.36301 15 6.14348 15 8Z" stroke="#FF5B00" stroke-width="1.5" stroke-linecap="round" stroke-linejoin="round"/>
<path d="M7.99999 10.3334C9.28865 10.3334 10.3333 9.28868 10.3333 8.00002C10.3333 6.71136 9.28865 5.66669 7.99999 5.66669C6.71133 5.66669 5.66666 6.71136 5.66666 8.00002C5.66666 9.28868 6.71133 10.3334 7.99999 10.3334Z" stroke="#FF5B00" stroke-width="1.5" stroke-linecap="round" stroke-linejoin="round"/>
</svg>
