<svg width="113" height="35" viewBox="0 0 113 35" fill="none" xmlns="http://www.w3.org/2000/svg">
<path d="M6.69384 24.5086C4.61751 23.3399 2.98389 21.755 1.78856 19.7583C0.597664 17.7617 0 15.5747 0 13.2017C0 10.8288 0.597664 8.56652 1.78856 6.55217C2.98389 4.54225 4.62636 2.94405 6.7204 1.76643C8.81001 0.58881 11.1343 0 13.6931 0C16.252 0 18.5763 0.58881 20.6703 1.76643C22.7599 2.94405 24.4068 4.54225 25.611 6.55217C26.8108 8.56652 27.4129 10.7801 27.4129 13.2017C27.4129 15.6234 26.8063 17.7838 25.5977 19.7805C24.3891 21.7771 22.7289 23.3576 20.6216 24.5219C18.5143 25.6863 16.1812 26.2662 13.6223 26.2662C11.0634 26.2662 8.77016 25.6818 6.69384 24.5086ZM16.0351 17.0888C16.739 16.6992 17.288 16.1591 17.6864 15.4729C18.0849 14.7866 18.2841 14.0119 18.2841 13.1575C18.2841 12.303 18.0849 11.4973 17.6864 10.8066C17.288 10.1116 16.739 9.57148 16.0351 9.18189C15.3312 8.7923 14.552 8.59751 13.6931 8.59751C12.8343 8.59751 12.0551 8.7923 11.3512 9.18189C10.6473 9.57148 10.0983 10.116 9.69986 10.8066C9.30142 11.5017 9.1022 12.2853 9.1022 13.1575C9.1022 14.0296 9.30142 14.7866 9.69986 15.4729C10.0983 16.1591 10.6473 16.6992 11.3512 17.0888C12.0551 17.4783 12.8343 17.6731 13.6931 17.6731C14.552 17.6731 15.3312 17.4783 16.0351 17.0888Z" fill="#1F4D7E"/>
<path d="M71.5293 15.9642C70.4403 15.9642 70.0153 17.4296 70.9671 17.9653L70.9937 17.9786C71.8127 18.4302 72.7468 18.6559 73.7916 18.6559C74.6947 18.6559 75.4828 18.5231 76.1424 18.2575C76.5276 18.1026 76.9172 17.9033 77.2979 17.6554C77.7805 17.3499 78.418 17.496 78.7412 17.9653L81.6631 22.1977C81.9951 22.6758 81.8889 23.3399 81.4196 23.6807C80.45 24.3891 79.3787 24.9558 78.201 25.3941C76.6781 25.9563 75.0135 26.2352 73.2028 26.2352C70.6262 26.2352 68.3241 25.642 66.2965 24.4555C64.2688 23.269 62.6928 21.6797 61.5683 19.6786C60.4438 17.682 59.8815 15.5127 59.8815 13.1707C59.8815 10.8288 60.4216 8.56206 61.4974 6.55657C62.5732 4.55107 64.0785 2.96173 66.0175 1.77968C67.9522 0.61092 70.1436 0.02211 72.5919 0.02211C75.2924 0.02211 77.6034 0.566648 79.5203 1.64687C81.4417 2.73152 82.8938 4.25003 83.8855 6.19797C84.8772 8.15034 85.373 10.3905 85.373 12.9184C85.373 13.5736 85.3287 14.2686 85.2446 15.0036C85.1826 15.5481 84.7178 15.9598 84.1688 15.9598H71.5205L71.5293 15.9642ZM70.3384 7.99539C70.1348 8.13706 69.9488 8.29644 69.7806 8.47795C69.1431 9.1553 69.6522 10.2798 70.5864 10.2798H75.2481C76.169 10.2798 76.6781 9.18629 76.0672 8.50008C75.8989 8.31414 75.7174 8.14591 75.5226 7.99982C74.8364 7.4907 73.9908 7.23835 72.9947 7.23835C71.9986 7.23835 71.0645 7.4907 70.3384 7.99982V7.99539Z" fill="#1F4D7E"/>
<path d="M95.2588 25.5402H87.1792C86.3204 25.5402 85.8113 24.5795 86.2894 23.8711L93.3064 13.4673C93.5499 13.1087 93.5499 12.6395 93.3108 12.2764L86.6524 2.17371C86.1831 1.46094 86.6923 0.513535 87.5467 0.513535H95.79C96.2062 0.513535 96.5825 0.7526 96.7596 1.12891L98.5836 4.98495C98.9687 5.79954 100.12 5.80397 100.514 4.99823L102.404 1.12005C102.586 0.7526 102.958 0.517962 103.369 0.517962H111.511C112.356 0.517962 112.87 1.45209 112.414 2.16486L105.933 12.2897C105.702 12.6483 105.707 13.1043 105.941 13.4585L112.821 23.88C113.291 24.5928 112.781 25.5402 111.927 25.5402H103.839C103.445 25.5402 103.077 25.3232 102.891 24.9735L100.474 20.4312C100.071 19.6698 98.9776 19.6742 98.5791 20.4401L96.215 24.9691C96.0291 25.3232 95.6661 25.5446 95.2632 25.5446L95.2588 25.5402Z" fill="#1F4D7E"/>
<path d="M55.7289 5.16205C54.8921 3.50187 53.7234 2.22242 52.2181 1.33257C50.7129 0.442714 48.9819 0 47.034 0C45.7988 0 44.4441 0.27891 42.961 0.841157C42.1243 1.15991 41.3628 1.53179 40.681 1.96565C39.8487 2.49248 38.7464 2.22685 38.2461 1.37684C37.9318 0.841157 37.3607 0.513548 36.7409 0.513548H32.6502C31.6851 0.513548 30.9059 1.29272 30.9059 2.25784V23.7959C30.9059 24.761 31.6851 25.5402 32.6502 25.5402H38.7995C38.9544 25.5092 39.2953 25.4118 39.6008 25.124C39.8044 24.9337 39.9151 24.73 39.9771 24.5928C40.0568 24.3537 40.2162 24.1058 40.4951 23.88C40.8581 23.5834 41.2123 23.2735 41.5664 22.9636C41.8365 22.7245 42.111 22.4854 42.3855 22.2508C42.5493 22.1091 42.5758 22.0516 42.5537 21.8479C42.4165 20.6925 42.3058 19.4573 42.2039 17.9786C41.0573 18.2531 39.9107 18.5409 38.7641 18.8242C37.7901 19.0677 36.8205 19.3112 35.8466 19.5635C35.3862 19.6831 35.0807 19.5193 34.939 19.413C34.7619 19.2802 34.545 19.019 34.5317 18.5364C34.5184 18.045 34.514 17.5226 34.5893 16.9958C34.6468 16.5885 34.9656 16.2343 35.2445 16.044C37.3739 14.5697 39.2953 13.2416 41.2477 11.94C41.6771 11.6567 41.7745 11.5194 41.7214 11.0546C41.5709 9.74856 41.5576 8.4824 41.562 6.96389C41.562 6.35295 41.6948 5.71544 41.9295 5.1709C42.3766 4.13052 43.2709 3.62583 44.3201 3.8162C45.2675 3.98885 46.0866 4.88756 46.2194 5.90581C46.2769 6.34852 46.2991 6.83108 46.2858 7.37562C46.2504 8.6285 46.2017 9.94778 46.1352 11.4043C46.1264 11.5814 46.1353 11.5903 46.2238 11.6478C47.1225 12.2543 48.0168 12.8653 48.9066 13.4806C50.009 14.2377 51.1114 14.9947 52.2226 15.7341C52.8247 16.1369 53.4312 16.6903 53.3249 17.7396C53.3249 17.775 53.3338 17.8547 53.3382 17.9211C53.3515 18.0273 53.3648 18.1336 53.3648 18.2398C53.3648 18.6427 53.3426 19.0943 52.9796 19.382C52.5944 19.6875 52.0986 19.5635 51.8286 19.4971C49.8098 18.9969 47.7866 18.4966 45.7634 18.0008C45.7368 17.9963 45.7147 17.9875 45.6925 17.983C45.6881 18.0362 45.6837 18.0893 45.6793 18.1291C45.6306 18.7091 45.573 19.2891 45.5154 19.869C45.449 20.5596 45.3782 21.2547 45.3251 21.9453C45.3251 21.9852 45.3561 22.0781 45.3826 22.1136C45.7722 22.4854 46.1972 22.8573 46.6134 23.2159C46.8613 23.4329 47.1136 23.6498 47.3571 23.8711C47.6936 24.1722 47.8618 24.3847 47.9282 24.6459H47.9371C47.9725 24.761 48.0566 25.0001 48.2824 25.2126C48.61 25.518 48.9996 25.5446 49.1103 25.549H55.233C56.1981 25.549 56.9773 24.7698 56.9773 23.8047V11.028C56.9773 8.77902 56.5612 6.82665 55.7244 5.16205H55.7289Z" fill="#EA7423"/>
<path d="M88.0559 34.2749V29.4759H86.3293V28.3691H91.0398V29.4759H89.322V34.2749H88.0559Z" fill="#EA7423"/>
<path d="M92.4121 31.3264C92.4121 29.5467 93.7137 28.2717 95.4934 28.2717C97.2731 28.2717 98.5836 29.5467 98.5836 31.3264C98.5836 33.1062 97.282 34.3812 95.4934 34.3812C93.7049 34.3812 92.4121 33.1062 92.4121 31.3264ZM97.2908 31.3264C97.2908 30.2197 96.5825 29.3874 95.4934 29.3874C94.4043 29.3874 93.7049 30.2197 93.7049 31.3264C93.7049 32.4332 94.4043 33.2655 95.4934 33.2655C96.5825 33.2655 97.2908 32.4244 97.2908 31.3264Z" fill="#EA7423"/>
<path d="M100.532 31.9197V28.3691H101.807V31.8754C101.807 32.6988 102.285 33.2655 103.197 33.2655C104.109 33.2655 104.578 32.6988 104.578 31.8754V28.3691H105.862V31.9108C105.862 33.3806 104.994 34.3812 103.197 34.3812C101.399 34.3812 100.532 33.3718 100.532 31.9197Z" fill="#EA7423"/>
<path d="M111.422 34.2749L110.262 32.1764H109.342V34.2749H108.084V28.3691H110.847C112.077 28.3691 112.83 29.1748 112.83 30.2728C112.83 31.3707 112.175 31.8754 111.537 32.0259L112.866 34.2749H111.422ZM111.546 30.2728C111.546 29.7769 111.165 29.4759 110.661 29.4759H109.342V31.0696H110.661C111.165 31.0696 111.546 30.7686 111.546 30.2728Z" fill="#EA7423"/>
</svg>
